<svg xmlns="http://www.w3.org/2000/svg" version="1.0" width="368.000000pt" height="115.000000pt" viewBox="0 0 368.000000 115.000000" preserveAspectRatio="xMidYMid meet">

<g transform="translate(0.000000,115.000000) scale(0.100000,-0.100000)" fill="#000000" stroke="none" style="fill: white;">
<path d="M1565 785 c-27 -7 -70 -22 -95 -33 -51 -22 -150 -92 -150 -106 0 -12 51 -66 62 -66 5 0 26 13 46 30 20 16 64 42 97 57 55 26 70 28 175 28 109 0 119 -2 183 -32 38 -18 86 -46 107 -63 l38 -30 32 37 33 37 -39 33 c-51 43 -166 98 -232 112 -71 15 -196 13 -257 -4z"/>
<path d="M2444 781 c-23 -10 -54 -36 -70 -57 l-29 -37 0 -173 0 -172 31 -39 c60 -75 47 -74 520 -71 l421 3 36 28 c66 50 77 86 77 247 0 185 -18 231 -105 271 -37 17 -73 19 -440 19 -369 0 -403 -2 -441 -19z m874 -45 c54 -29 62 -59 62 -220 0 -131 -2 -152 -20 -181 -36 -59 -45 -60 -480 -60 -394 0 -395 0 -432 23 -58 36 -71 83 -66 239 4 139 14 169 67 198 36 20 834 21 869 1z"/>
<path d="M2483 690 c-36 -15 -43 -43 -43 -177 0 -186 -18 -173 241 -173 266 0 249 -12 249 174 0 191 14 180 -232 183 -106 1 -203 -2 -215 -7z"/>
<path d="M925 767 c-3 -7 -4 -125 -3 -262 l3 -250 39 -3 c22 -2 50 -1 63 2 l23 6 0 248 c0 180 -3 251 -12 260 -16 16 -107 16 -113 -1z"/>
<path d="M705 638 c-3 -8 -4 -97 -3 -198 l3 -185 60 0 60 0 0 195 0 195 -58 3 c-41 2 -59 -1 -62 -10z"/>
<path d="M3467 603 c-11 -10 -8 -171 3 -178 17 -10 67 23 80 54 17 42 -2 96 -40 116 -33 17 -34 17 -43 8z"/>
<path d="M1600 587 c-49 -17 -114 -52 -130 -72 -12 -14 -9 -20 17 -47 l31 -31 63 32 c48 24 75 31 118 31 56 0 128 -25 161 -55 14 -13 20 -11 51 21 l34 36 -35 29 c-73 62 -216 87 -310 56z"/>
<path d="M480 511 c-13 -25 -13 -201 0 -235 8 -23 15 -26 58 -26 26 0 53 5 60 12 13 13 18 222 6 252 -10 25 -110 22 -124 -3z"/>
<path d="M272 431 c-9 -5 -12 -31 -10 -92 l3 -84 39 -3 c22 -2 50 -1 63 2 22 6 23 11 23 84 0 47 -5 83 -12 90 -14 14 -86 16 -106 3z"/>
<path d="M1628 384 c-16 -8 -28 -18 -28 -22 0 -4 23 -30 50 -57 l50 -49 50 49 c28 27 50 53 50 57 0 16 -61 38 -102 38 -24 -1 -55 -8 -70 -16z"/>
</g>
</svg>